<?xml version="1.0" encoding="UTF-8"?>
<svg id="Layer_1" data-name="Layer 1" xmlns="http://www.w3.org/2000/svg" viewBox="0 0 532.04 436.37">
  <path d="M236.66,399.75c-36.49-45.06-79.61-83.96-128.18-115.62l-28.95-18.87c-10.84-5.21-21-11.83-30.19-19.68l-5.56-3.63,1.61.11C16.82,215.72.5,178.59.5,139.7.5,62.95,62.95.5,139.7.5c54.21,0,103.54,31.59,126.32,80.65C288.8,32.09,338.14.5,392.34.5c76.76,0,139.2,62.45,139.2,139.2,0,54.41-32,104.14-81.51,126.72l-27.17,17.71c-48.57,31.66-91.7,70.56-128.18,115.62l-29.01,35.83-29.01-35.83Z" fill="#cf1e50" stroke="#cf1e50" stroke-miterlimit="10"/>
  <path d="M530.54,139.7C530.54,63.38,468.67,1.5,392.34,1.5c-56.34,0-104.8,33.72-126.32,82.07C244.5,35.22,196.04,1.5,139.7,1.5,63.38,1.5,1.5,63.38,1.5,139.7c0,41.23,18.06,78.23,46.69,103.55l-.66-.05,2.4,1.56c9.09,7.77,19.19,14.39,30.08,19.61l29,18.91c48.59,31.67,91.91,70.75,128.41,115.83l28.24,34.87,28.24-34.87c36.5-45.07,79.83-84.15,128.41-115.83l27.23-17.75c47.78-21.75,81-69.92,81-125.84Z" fill="none" stroke="#231f20" stroke-miterlimit="10"/>
</svg>